<svg width="26" height="26" viewBox="0 0 26 26" fill="none" xmlns="http://www.w3.org/2000/svg">
<path d="M24.9563 22.115L20.0881 17.2468C19.8684 17.0271 19.5706 16.905 19.2581 16.905H18.4622C19.8098 15.1814 20.6106 13.0134 20.6106 10.655C20.6106 5.04468 16.0647 0.498779 10.4543 0.498779C4.84399 0.498779 0.298096 5.04468 0.298096 10.655C0.298096 16.2654 4.84399 20.8113 10.4543 20.8113C12.8127 20.8113 14.9807 20.0105 16.7043 18.6628V19.4587C16.7043 19.7712 16.8264 20.0691 17.0461 20.2888L21.9143 25.157C22.3733 25.616 23.1155 25.616 23.5696 25.157L24.9514 23.7751C25.4104 23.3162 25.4104 22.574 24.9563 22.115ZM10.4543 16.905C7.0022 16.905 4.20435 14.1121 4.20435 10.655C4.20435 7.20288 6.99731 4.40503 10.4543 4.40503C13.9065 4.40503 16.7043 7.198 16.7043 10.655C16.7043 14.1072 13.9114 16.905 10.4543 16.905Z" fill="black"/>
</svg>
