<svg width="24" height="18" viewBox="0 0 24 18" fill="none" xmlns="http://www.w3.org/2000/svg">
<path d="M23.5047 3.27443C23.2321 2.24795 22.4289 1.43953 21.409 1.16518C19.5605 0.666656 12.1481 0.666656 12.1481 0.666656C12.1481 0.666656 4.7358 0.666656 2.88724 1.16518C1.8674 1.43957 1.06419 2.24795 0.791577 3.27443C0.296265 5.13497 0.296265 9.01683 0.296265 9.01683C0.296265 9.01683 0.296265 12.8987 0.791577 14.7592C1.06419 15.7857 1.8674 16.5604 2.88724 16.8348C4.7358 17.3333 12.1481 17.3333 12.1481 17.3333C12.1481 17.3333 19.5605 17.3333 21.409 16.8348C22.4289 16.5604 23.2321 15.7857 23.5047 14.7592C24 12.8987 24 9.01683 24 9.01683C24 9.01683 24 5.13497 23.5047 3.27443ZM9.72387 12.5413V5.49239L15.9191 9.01692L9.72387 12.5413Z" fill="black"/>
</svg>
