<svg width="20" height="20" viewBox="0 0 20 20" fill="none" xmlns="http://www.w3.org/2000/svg">
<path d="M4.54921 19.5H0.610104V6.81467H4.54921V19.5ZM2.57754 5.08428C1.31794 5.08428 0.296265 4.04095 0.296265 2.78132C0.296265 2.17628 0.536612 1.59602 0.964434 1.16818C1.39226 0.740353 1.97251 0.5 2.57754 0.5C3.18257 0.5 3.76282 0.740353 4.19064 1.16818C4.61846 1.59602 4.85881 2.17628 4.85881 2.78132C4.85881 4.04095 3.83671 5.08428 2.57754 5.08428ZM19.292 19.5H15.3614V13.3249C15.3614 11.8532 15.3317 9.96586 13.3134 9.96586C11.2654 9.96586 10.9515 11.5648 10.9515 13.2188V19.5H7.01667V6.81467H10.7946V8.54507H10.8497C11.3756 7.54839 12.6603 6.49658 14.5768 6.49658C18.5634 6.49658 19.2963 9.12187 19.2963 12.5318V19.5H19.292Z" fill="black"/>
</svg>
